TITLE ""
FILE "1Q_t_1820-1829.mp3" MP3
  TRACK 01 AUDIO
    TITLE "1Q_t_1820-1829_01"
    INDEX 01 00:00:00
  TRACK 02 AUDIO
    TITLE "1Q_t_1820-1829_02"
    INDEX 01 00:01:33
  TRACK 03 AUDIO
    TITLE "1Q_t_1820-1829_03"
    INDEX 01 00:01:43
  TRACK 04 AUDIO
    TITLE "1Q_t_1820-1829_04"
    INDEX 01 00:03:05
  TRACK 05 AUDIO
    TITLE "1Q_t_1820-1829_05"
    INDEX 01 00:03:13
  TRACK 06 AUDIO
    TITLE "1Q_t_1820-1829_06"
    INDEX 01 00:08:47
  TRACK 07 AUDIO
    TITLE "1Q_t_1820-1829_07"
    INDEX 01 00:09:19
  TRACK 08 AUDIO
    TITLE "1Q_t_1820-1829_08"
    INDEX 01 00:10:42
  TRACK 09 AUDIO
    TITLE "1Q_t_1820-1829_09"
    INDEX 01 00:10:52
  TRACK 10 AUDIO
    TITLE "1Q_t_1820-1829_10"
    INDEX 01 00:14:14
  TRACK 11 AUDIO
    TITLE "1Q_t_1820-1829_11"
    INDEX 01 00:14:24
  TRACK 12 AUDIO
    TITLE "1Q_t_1820-1829_12"
    INDEX 01 00:18:55
  TRACK 13 AUDIO
    TITLE "1Q_t_1820-1829_13"
    INDEX 01 00:19:31
  TRACK 14 AUDIO
    TITLE "1Q_t_1820-1829_14"
    INDEX 01 00:20:48
  TRACK 15 AUDIO
    TITLE "1Q_t_1820-1829_15"
    INDEX 01 00:20:58
  TRACK 16 AUDIO
    TITLE "1Q_t_1820-1829_16"
    INDEX 01 00:22:22
  TRACK 17 AUDIO
    TITLE "1Q_t_1820-1829_17"
    INDEX 01 00:22:28
  TRACK 18 AUDIO
    TITLE "1Q_t_1820-1829_18"
    INDEX 01 00:26:66
  TRACK 19 AUDIO
    TITLE "1Q_t_1820-1829_19"
    INDEX 01 00:27:39
  TRACK 20 AUDIO
    TITLE "1Q_t_1820-1829_20"
    INDEX 01 00:28:38
  TRACK 21 AUDIO
    TITLE "1Q_t_1820-1829_21"
    INDEX 01 00:28:48
  TRACK 22 AUDIO
    TITLE "1Q_t_1820-1829_22"
    INDEX 01 00:31:17
  TRACK 23 AUDIO
    TITLE "1Q_t_1820-1829_23"
    INDEX 01 00:31:25
  TRACK 24 AUDIO
    TITLE "1Q_t_1820-1829_24"
    INDEX 01 00:35:65
  TRACK 25 AUDIO
    TITLE "1Q_t_1820-1829_25"
    INDEX 01 00:36:37
  TRACK 26 AUDIO
    TITLE "1Q_t_1820-1829_26"
    INDEX 01 00:37:47
  TRACK 27 AUDIO
    TITLE "1Q_t_1820-1829_27"
    INDEX 01 00:37:57
  TRACK 28 AUDIO
    TITLE "1Q_t_1820-1829_28"
    INDEX 01 00:39:59
  TRACK 29 AUDIO
    TITLE "1Q_t_1820-1829_29"
    INDEX 01 00:39:69
  TRACK 30 AUDIO
    TITLE "1Q_t_1820-1829_30"
    INDEX 01 00:44:02
  TRACK 31 AUDIO
    TITLE "1Q_t_1820-1829_31"
    INDEX 01 00:44:47
  TRACK 32 AUDIO
    TITLE "1Q_t_1820-1829_32"
    INDEX 01 00:45:62
  TRACK 33 AUDIO
    TITLE "1Q_t_1820-1829_33"
    INDEX 01 00:45:70
  TRACK 34 AUDIO
    TITLE "1Q_t_1820-1829_34"
    INDEX 01 00:47:18
  TRACK 35 AUDIO
    TITLE "1Q_t_1820-1829_35"
    INDEX 01 00:47:27
  TRACK 36 AUDIO
    TITLE "1Q_t_1820-1829_36"
    INDEX 01 00:52:35
  TRACK 37 AUDIO
    TITLE "1Q_t_1820-1829_37"
    INDEX 01 00:53:09
  TRACK 38 AUDIO
    TITLE "1Q_t_1820-1829_38"
    INDEX 01 00:54:06
  TRACK 39 AUDIO
    TITLE "1Q_t_1820-1829_39"
    INDEX 01 00:54:16
  TRACK 40 AUDIO
    TITLE "1Q_t_1820-1829_40"
    INDEX 01 00:55:62
  TRACK 41 AUDIO
    TITLE "1Q_t_1820-1829_41"
    INDEX 01 00:55:70
  TRACK 42 AUDIO
    TITLE "1Q_t_1820-1829_42"
    INDEX 01 01:00:50
  TRACK 43 AUDIO
    TITLE "1Q_t_1820-1829_43"
    INDEX 01 01:01:20
  TRACK 44 AUDIO
    TITLE "1Q_t_1820-1829_44"
    INDEX 01 01:02:35
  TRACK 45 AUDIO
    TITLE "1Q_t_1820-1829_45"
    INDEX 01 01:02:45
  TRACK 46 AUDIO
    TITLE "1Q_t_1820-1829_46"
    INDEX 01 01:04:38
  TRACK 47 AUDIO
    TITLE "1Q_t_1820-1829_47"
    INDEX 01 01:04:46
  TRACK 48 AUDIO
    TITLE "1Q_t_1820-1829_48"
    INDEX 01 01:09:10
  TRACK 49 AUDIO
    TITLE "1Q_t_1820-1829_49"
    INDEX 01 01:09:55
  TRACK 50 AUDIO
    TITLE "1Q_t_1820-1829_50"
    INDEX 01 01:11:10
  TRACK 51 AUDIO
    TITLE "1Q_t_1820-1829_51"
    INDEX 01 01:11:20
  TRACK 52 AUDIO
    TITLE "1Q_t_1820-1829_52"
    INDEX 01 01:15:02
  TRACK 53 AUDIO
    TITLE "1Q_t_1820-1829_53"
    INDEX 01 01:15:10
  TRACK 54 AUDIO
    TITLE "1Q_t_1820-1829_54"
    INDEX 01 01:20:37
  TRACK 55 AUDIO
    TITLE "1Q_t_1820-1829_55"
    INDEX 01 01:21:09
  TRACK 56 AUDIO
    TITLE "1Q_t_1820-1829_56"
    INDEX 01 01:22:30
  TRACK 57 AUDIO
    TITLE "1Q_t_1820-1829_57"
    INDEX 01 01:22:40
  TRACK 58 AUDIO
    TITLE "1Q_t_1820-1829_58"
    INDEX 01 01:24:03
  TRACK 59 AUDIO
    TITLE "1Q_t_1820-1829_59"
    INDEX 01 01:24:11
  TRACK 60 AUDIO
    TITLE "1Q_t_1820-1829_60"
    INDEX 01 01:29:04
